<?xml version="1.0" encoding="UTF-8"?>
<svg version="1.1" xmlns="http://www.w3.org/2000/svg" width="500" height="500">
<path d="M0 0 C0.33 0 0.66 0 1 0 C3.64 28.71 6.28 57.42 9 87 C13.95 65.88 18.9 44.76 24 23 C24.66 23.33 25.32 23.66 26 24 C25.01 44.46 24.02 64.92 23 86 C25.5575 79.214375 28.115 72.42875 30.75 65.4375 C33.82790271 57.28960508 36.91140231 49.1438466 40 41 C40.49666168 39.69041321 40.49666168 39.69041321 41.00335693 38.35437012 C42.71912279 33.83375104 44.44119243 29.31564205 46.17468262 24.80178833 C46.68167444 23.4796463 47.18681387 22.1567924 47.69006348 20.83322144 C48.38065559 19.01834976 49.07878101 17.20634988 49.77734375 15.39453125 C50.16140381 14.39268799 50.54546387 13.39084473 50.94116211 12.35864258 C52 10 52 10 54 8 C53.19716579 17.00353617 51.47272768 25.8417388 49.83984375 34.72265625 C49.52711936 36.43610285 49.21466949 38.14959958 48.90248108 39.86314392 C48.08487624 44.34668416 47.26357213 48.82953887 46.44146729 53.31225586 C45.60129909 57.89721151 44.76467062 62.48281287 43.92773438 67.06835938 C42.28859873 76.04620447 40.64555005 85.02332855 39 94 C39.58067482 92.91725548 39.58067482 92.91725548 40.17308044 91.81263733 C41.64556041 89.06845208 43.11917272 86.32487851 44.5934906 83.5816803 C45.5307379 81.83700947 46.46674304 80.09167153 47.40270996 78.34631348 C52.98115655 67.96999684 58.76096964 57.71451683 64.59423828 47.47998047 C66.75526043 43.66760413 68.88074053 39.83571348 71 36 C72.23155514 39.69466542 71.61930472 40.84581307 70.36938477 44.48120117 C69.98891495 45.60213669 69.60844513 46.7230722 69.21644592 47.87797546 C68.79568283 49.08742325 68.37491974 50.29687103 67.94140625 51.54296875 C67.30669655 53.40106926 67.30669655 53.40106926 66.65916443 55.29670715 C65.53440932 58.58907287 64.39883477 61.8776066 63.26098633 65.16546631 C62.10169312 68.52148036 60.95264405 71.88099616 59.80273438 75.24023438 C57.54518439 81.83029148 55.27618791 88.41635798 53 95 C55.5483604 92.48337726 57.85137201 90.01719828 59.9609375 87.12109375 C60.5075 86.37472656 61.0540625 85.62835938 61.6171875 84.859375 C62.19726562 84.06015625 62.77734375 83.2609375 63.375 82.4375 C64.63272127 80.71738121 65.89053637 78.99733101 67.1484375 77.27734375 C67.7887793 76.39933105 68.42912109 75.52131836 69.08886719 74.61669922 C72.61784943 69.78486073 76.17428363 64.9732433 79.7277832 60.15942383 C82.77038136 56.03491796 85.80160221 51.90268922 88.81640625 47.7578125 C89.44353516 46.89865234 90.07066406 46.03949219 90.71679688 45.15429688 C91.91306735 43.51496327 93.10599145 41.87318038 94.29492188 40.22851562 C97.28316847 36.14138831 100.29933309 32.45946888 104 29 C102.49369296 33.99511165 100.39279403 38.46052891 98.03515625 43.08984375 C97.64570328 43.86314026 97.25625031 44.63643677 96.85499573 45.4331665 C96.0236475 47.08342013 95.1906086 48.73282296 94.35601807 50.38143921 C92.18501277 54.67146163 90.02798461 58.9684932 87.87109375 63.265625 C87.44675049 64.11058029 87.02240723 64.95553558 86.58520508 65.82609558 C83.19767437 72.58157231 79.87630757 79.36520912 76.625 86.1875 C76.21644775 87.04400146 75.80789551 87.90050293 75.38696289 88.78295898 C72.52193284 94.82586372 69.76812364 100.91012798 67 107 C81.85 92.15 96.7 77.3 112 62 C112 65.96321885 110.58207807 67.42695647 108.3359375 70.6796875 C107.95163071 71.24078217 107.56732391 71.80187683 107.17137146 72.37997437 C105.91209272 74.21598313 104.64351337 76.04536251 103.375 77.875 C102.07249588 79.76983053 100.77244902 81.66633191 99.47242737 83.56286621 C98.59518524 84.84215597 97.71711849 86.12088064 96.83824158 87.39904785 C92.773885 93.31259463 88.78238949 99.27256778 84.8125 105.25 C83.92280518 106.58780518 83.92280518 106.58780518 83.01513672 107.95263672 C81.67566199 109.96770069 80.33719416 111.98342226 79 114 C79.78761719 113.39414063 80.57523437 112.78828125 81.38671875 112.1640625 C82.16535278 111.56513184 82.16535278 111.56513184 82.9597168 110.95410156 C84.13180275 110.0524715 85.30383888 109.15077667 86.47583008 108.24902344 C89.35776668 106.03173658 92.24045227 103.81545288 95.125 101.6015625 C101.32851127 96.83815206 107.5142254 92.05253998 113.6875 87.25 C114.43950684 86.66532959 115.19151367 86.08065918 115.96630859 85.47827148 C119.97593222 82.35925103 123.97986483 79.23322591 127.9765625 76.09765625 C128.78649658 75.46375977 129.59643066 74.82986328 130.4309082 74.17675781 C131.98074108 72.96358264 133.52885029 71.74820118 135.07495117 70.53027344 C138.60352204 67.7714183 142.07340432 65.18315634 146 63 C144.71104283 65.81351786 143.33731495 67.9325707 141.20703125 70.171875 C140.66272461 70.74969727 140.11841797 71.32751953 139.55761719 71.92285156 C138.98172852 72.52581055 138.40583984 73.12876953 137.8125 73.75 C136.62547304 75.00963593 135.43926755 76.2700465 134.25390625 77.53125 C133.4033667 78.43423828 133.4033667 78.43423828 132.53564453 79.35546875 C130.1830788 81.87484598 127.9239597 84.4692744 125.671875 87.078125 C123.64241927 89.41105074 121.572353 91.70511245 119.5 94 C116.82951656 96.95869751 114.17701942 99.92926472 111.5625 102.9375 C108.75177475 106.16559512 105.884201 109.33738443 103 112.5 C95.57603146 120.41001432 95.57603146 120.41001432 89 129 C92.49538796 127.00630791 95.99018701 125.01158692 99.48468018 123.0163269 C101.37654886 121.93661605 103.26906589 120.85804796 105.16162109 119.77954102 C111.65492696 116.0758776 118.13213777 112.34798794 124.578125 108.5625 C126.35570143 107.52238222 128.13355179 106.48273393 129.91143799 105.44314575 C131.61015737 104.44621076 133.30388724 103.44078983 134.99755859 102.43530273 C136.02187988 101.83661377 137.04620117 101.2379248 138.1015625 100.62109375 C139.00213379 100.0892749 139.90270508 99.55745605 140.83056641 99.00952148 C141.54647949 98.67637939 142.26239258 98.3432373 143 98 C143.66 98.33 144.32 98.66 145 99 C138.47104344 105.09597166 131.87892916 111.01225834 124.91796875 116.6171875 C120.97978641 119.83310614 117.1347002 123.152787 113.29736328 126.48803711 C108.31029556 130.79935641 103.16485681 134.90431591 98 139 C115.05209354 132.21085339 132.06866647 125.33638721 149.07261658 118.42771912 C151.28225743 117.53106739 153.49314582 116.6375442 155.70410156 115.74414062 C158.60353066 114.57131933 161.49473715 113.38057092 164.38183594 112.17773438 C165.75194829 111.61326951 167.12206526 111.04881586 168.4921875 110.484375 C169.69987793 109.98131836 170.90756836 109.47826172 172.15185547 108.95996094 C173.56168701 108.48478027 173.56168701 108.48478027 175 108 C175.66 108.33 176.32 108.66 177 109 C165.91044463 116.24371942 154.78822847 123.43233473 143.60522461 130.53100586 C138.47261457 133.78939649 133.34523045 137.05568505 128.2265625 140.3359375 C127.65936996 140.69936752 127.09217743 141.06279755 126.50779724 141.4372406 C123.74129701 143.21018197 120.97542534 144.98409607 118.21020508 146.7590332 C117.21142334 147.39929443 116.2126416 148.03955566 115.18359375 148.69921875 C114.30243896 149.26471436 113.42128418 149.83020996 112.51342773 150.4128418 C110.03078144 151.9805624 107.52376972 153.49955618 105 155 C114.75178822 152.92146475 124.4441616 150.68125703 134.09375 148.16796875 C135.02775635 147.92499054 135.9617627 147.68201233 136.92407227 147.43167114 C140.77284226 146.42774649 144.62047301 145.41965169 148.46630859 144.40454102 C151.31971463 143.65283728 154.17526326 142.90979684 157.03125 142.16796875 C157.90503296 141.93474411 158.77881592 141.70151947 159.67907715 141.46122742 C165.77317495 139.88658748 165.77317495 139.88658748 168 141 C156.3376444 146.94026618 144.53334617 152.50952608 132.625 157.9375 C130.11362132 159.08549687 127.60259829 160.23426858 125.09164429 161.38319397 C123.54723669 162.08951548 122.00251172 162.79514354 120.45742798 163.49998474 C116.70782486 165.20596083 116.70782486 165.20596083 113 167 C122.61378723 166.39000246 132.15062561 165.49010425 141.71875 164.37109375 C143.07438116 164.21522394 144.43005434 164.05971917 145.7857666 163.90455627 C150.74540822 163.33618289 155.70433683 162.76169659 160.66320801 162.18664551 C164.88865545 161.6968111 169.11439846 161.20969704 173.34059143 160.72633553 C175.30285337 160.50079438 177.26465328 160.27124504 179.22644043 160.04161072 C180.42208618 159.90469315 181.61773193 159.76777557 182.84960938 159.62670898 C184.41841858 159.44470192 184.41841858 159.44470192 186.0189209 159.25901794 C189.02869585 158.99750669 191.98051714 158.95478244 195 159 C192.40374682 161.59625318 190.17931534 162.02742813 186.66113281 163.09130859 C186.01033249 163.29000046 185.35953217 163.48869232 184.68901062 163.69340515 C182.52885491 164.35120546 180.36606709 164.99986353 178.203125 165.6484375 C176.69236656 166.10629847 175.18176909 166.56469089 173.67132568 167.02359009 C169.68023763 168.23443017 165.68682041 169.43741113 161.69293213 170.63897705 C158.47269785 171.6091908 155.25413531 172.58487679 152.0356636 173.56091881 C148.15455059 174.73779867 144.27269832 175.91222968 140.390625 177.0859375 C139.6669297 177.30477978 138.94323441 177.52362206 138.19760895 177.74909592 C110.79773243 186.02597832 110.79773243 186.02597832 100.1875 187.875 C69.7544901 193.61762735 42.17146775 210.36637516 24.03515625 235.75 C22.27585182 238.46017575 20.61629633 241.20241056 19 244 C18.23236328 245.30904297 18.23236328 245.30904297 17.44921875 246.64453125 C9.42430244 260.80736804 4.97545458 275.3154895 1 291 C0.34 291 -0.32 291 -1 291 C-1.1451001 290.42258057 -1.2902002 289.84516113 -1.43969727 289.25024414 C-10.46028805 253.76878517 -27.23836858 222.64572835 -59.546875 203.02734375 C-67.43046836 198.36628869 -75.29560399 194.71364363 -84 191.875 C-84.69182373 191.64530518 -85.38364746 191.41561035 -86.09643555 191.17895508 C-90.67976412 189.75856252 -95.24405488 188.76665232 -99.96989441 187.93751526 C-116.42912515 184.9705902 -132.2831482 179.66065281 -148.22515869 174.70184326 C-152.34497385 173.42299823 -156.46863638 172.15667979 -160.59179688 170.88867188 C-185.73805525 163.14409312 -185.73805525 163.14409312 -195 160 C-195 159.67 -195 159.34 -195 159 C-184.4614177 159.59965659 -174.02551126 160.59638756 -163.546875 161.84765625 C-162.02854744 162.02596428 -160.51017486 162.20388929 -158.99176025 162.38145447 C-155.04716914 162.84352942 -151.10307681 163.3097174 -147.15911865 163.77716064 C-140.80694995 164.52952032 -134.45414059 165.27642011 -128.10111237 166.02148247 C-125.89229971 166.28128364 -123.68377915 166.54346598 -121.47528076 166.80592346 C-120.12903716 166.9645221 -118.78278518 167.12304961 -117.43652344 167.28149414 C-115.67571442 167.49014854 -115.67571442 167.49014854 -113.8793335 167.70301819 C-110.98507335 168.05129913 -110.98507335 168.05129913 -108 168 C-108.680625 167.68474365 -109.36125 167.3694873 -110.0625 167.04467773 C-129.40070233 158.0843654 -148.70767147 149.0586286 -168 140 C-164.48765898 138.82921966 -163.27400027 139.23449637 -159.75 140.17163086 C-158.14318359 140.59217995 -158.14318359 140.59217995 -156.50390625 141.02122498 C-155.34761719 141.33261917 -154.19132812 141.64401337 -153 141.96484375 C-151.81277344 142.27700333 -150.62554687 142.5891629 -149.40234375 142.91078186 C-146.24549389 143.74178638 -143.09054833 144.57955199 -139.93652344 145.42120361 C-135.49220818 146.60610221 -131.04538471 147.7814872 -126.59765625 148.95350647 C-124.2293659 149.57811372 -121.86214234 150.20678231 -119.49609375 150.83982849 C-117.88927734 151.26510582 -117.88927734 151.26510582 -116.25 151.69897461 C-115.30640625 151.95069931 -114.3628125 152.20242401 -113.390625 152.46177673 C-110.92062027 153.1098207 -110.92062027 153.1098207 -108 153 C-108.59611084 152.62939453 -109.19222168 152.25878906 -109.80639648 151.87695312 C-132.3689469 137.83898744 -154.74791494 123.5251948 -177 109 C-175 108 -175 108 -173.19052124 108.51358032 C-172.45653107 108.81412323 -171.72254089 109.11466614 -170.96630859 109.42431641 C-170.12771805 109.76325424 -169.2891275 110.10219208 -168.42512512 110.45140076 C-167.05066475 111.02073082 -167.05066475 111.02073082 -165.6484375 111.6015625 C-164.69341843 111.99001846 -163.73839935 112.37847443 -162.75444031 112.77870178 C-159.62495784 114.0535802 -156.50002389 115.33923597 -153.375 116.625 C-151.23784859 117.49788598 -149.10039623 118.37003549 -146.96264648 119.24145508 C-142.67222887 120.99156204 -138.38349231 122.74569002 -134.09619141 124.50341797 C-128.65574521 126.73317894 -123.21042456 128.95066418 -117.76171875 131.16015625 C-117.00381042 131.46749695 -116.2459021 131.77483765 -115.46502686 132.0914917 C-114.02034608 132.67723778 -112.57564481 133.2629333 -111.13092041 133.84857178 C-106.08559513 135.89489937 -101.04296774 137.9478711 -96 140 C-99.64713576 136.25778063 -103.45085145 132.8128924 -107.4375 129.4375 C-108.68624553 128.37375381 -109.93494208 127.30995011 -111.18359375 126.24609375 C-111.81765137 125.70710449 -112.45170898 125.16811523 -113.10498047 124.61279297 C-116.65225036 121.59382042 -120.18532629 118.55826923 -123.71923828 115.52368164 C-126.79001375 112.88843106 -129.86812169 110.26242061 -132.95703125 107.6484375 C-133.60220703 107.10058594 -134.24738281 106.55273438 -134.91210938 105.98828125 C-136.15461165 104.93349515 -137.39931775 103.88129816 -138.64648438 102.83203125 C-142.8875378 99.2249244 -142.8875378 99.2249244 -144 97 C-138.10525963 98.58481545 -133.29675307 101.61589737 -128.125 104.75 C-126.17753528 105.91611968 -124.22960033 107.08145434 -122.28125 108.24609375 C-121.26417969 108.85565918 -120.24710937 109.46522461 -119.19921875 110.09326172 C-113.69745427 113.37232007 -108.16069136 116.59116079 -102.625 119.8125 C-101.56684082 120.42899414 -100.50868164 121.04548828 -99.41845703 121.68066406 C-96.94599304 123.12105388 -94.4731799 124.56083988 -92 126 C-98.3217285 118.03270226 -105.18592989 110.54578234 -112 103 C-120.56860207 93.51127959 -120.56860207 93.51127959 -124.4375 89.0625 C-127.24822525 85.83440488 -130.115799 82.66261557 -133 79.5 C-133.84304687 78.571875 -134.68609375 77.64375 -135.5546875 76.6875 C-137.09531104 74.99429074 -138.64143949 73.30605835 -140.1953125 71.625 C-140.83210938 70.92375 -141.46890625 70.2225 -142.125 69.5 C-142.68445313 68.8915625 -143.24390625 68.283125 -143.8203125 67.65625 C-145 66 -145 66 -145 63 C-143.79730469 63.94746094 -143.79730469 63.94746094 -142.5703125 64.9140625 C-133.51158067 72.04422231 -124.41827019 79.12919438 -115.31445312 86.20166016 C-111.54184366 89.13299363 -107.77099606 92.06659147 -104 95 C-102.52344629 96.1484488 -101.04688374 97.29688624 -99.5703125 98.4453125 C-92.046875 104.296875 -84.5234375 110.1484375 -77 116 C-78.40938995 113.04543161 -80.01659763 110.3447744 -81.82568359 107.61791992 C-82.39322357 106.7599028 -82.96076355 105.90188568 -83.54550171 105.01786804 C-84.15697052 104.09802628 -84.76843933 103.17818451 -85.3984375 102.23046875 C-86.02980621 101.27610428 -86.66117493 100.32173981 -87.31167603 99.3384552 C-89.33066465 96.28672717 -91.352489 93.23689456 -93.375 90.1875 C-96.03115095 86.18264143 -98.68440221 82.17588432 -101.3359375 78.16796875 C-101.94335785 77.25419968 -102.5507782 76.3404306 -103.17660522 75.39897156 C-106.2958901 70.68358571 -109.26447533 65.94849074 -112 61 C-108.3918617 62.49152541 -106.43767172 64.5148687 -103.9140625 67.4609375 C-98.96646046 73.09711288 -93.71458937 78.36234996 -88.375 83.625 C-82.85945459 89.0617519 -77.42017634 94.46505572 -72.45947266 100.41943359 C-70.8906675 102.24260276 -70.8906675 102.24260276 -68 104 C-68.27561768 103.45400146 -68.55123535 102.90800293 -68.83520508 102.34545898 C-74.61171403 90.88651327 -80.28574333 79.38830964 -85.7800293 67.79125977 C-88.23599324 62.62666068 -90.7433897 57.49411936 -93.32421875 52.390625 C-93.874729 51.30185059 -94.42523926 50.21307617 -94.99243164 49.09130859 C-96.0577686 46.99249761 -97.1283356 44.89633078 -98.20483398 42.80322266 C-98.68637939 41.85495605 -99.1679248 40.90668945 -99.6640625 39.9296875 C-100.09154785 39.09679199 -100.5190332 38.26389648 -100.95947266 37.40576172 C-102.02737005 34.93671881 -102.5721545 32.64910132 -103 30 C-98.57391302 34.13760831 -95.10601173 38.72320869 -91.5625 43.625 C-90.3139169 45.33602129 -89.06521569 47.0469564 -87.81640625 48.7578125 C-87.18234863 49.62954102 -86.54829102 50.50126953 -85.89501953 51.39941406 C-82.9468008 55.4453334 -79.97300933 59.47228222 -77 63.5 C-73.38795126 68.39754617 -69.7800977 73.2980547 -66.18359375 78.20703125 C-65.24290039 79.48900391 -65.24290039 79.48900391 -64.28320312 80.796875 C-63.08892557 82.42463108 -61.89611794 84.0534671 -60.70507812 85.68359375 C-60.16173828 86.42351562 -59.61839844 87.1634375 -59.05859375 87.92578125 C-58.58736084 88.56942627 -58.11612793 89.21307129 -57.63061523 89.8762207 C-55.50193927 92.64869445 -53.23770521 95.31475375 -51 98 C-57.6 77.87 -64.2 57.74 -71 37 C-70.34 36.67 -69.68 36.34 -69 36 C-68.54786133 36.85416504 -68.09572266 37.70833008 -67.62988281 38.58837891 C-58.52467432 55.78412054 -49.36343455 72.94309557 -40 90 C-42.04763135 77.29781562 -44.21669373 64.62568212 -46.61328125 51.984375 C-46.8341037 50.81604126 -47.05492615 49.64770752 -47.28244019 48.44396973 C-48.19058388 43.64651867 -49.10116965 38.84958615 -50.02270508 34.0546875 C-50.70627154 30.49096779 -51.37936549 26.9254009 -52.05078125 23.359375 C-52.36780754 21.73150055 -52.36780754 21.73150055 -52.6912384 20.07073975 C-52.87861069 19.06738586 -53.06598297 18.06403198 -53.2590332 17.03027344 C-53.42683792 16.1522406 -53.59464264 15.27420776 -53.76753235 14.36956787 C-54.00476951 11.95138386 -53.74407461 10.29579738 -53 8 C-46.87156401 23.12970925 -41.02131778 38.35594847 -35.25 53.625 C-33.99036432 56.95448685 -32.73017243 60.28376066 -31.46893311 63.61264038 C-30.69323033 65.66029504 -29.91846021 67.70830336 -29.14483643 69.75674438 C-26.83177707 75.86618523 -24.4485402 81.94357839 -22 88 C-22.02505615 87.23896973 -22.0501123 86.47793945 -22.07592773 85.69384766 C-22.76190715 64.79714139 -23.39644678 43.89924303 -24 23 C-21.52407203 25.47592797 -21.34354185 27.05913727 -20.57958984 30.45947266 C-20.31947113 31.60050446 -20.05935242 32.74153625 -19.79135132 33.91714478 C-19.51731476 35.15362762 -19.2432782 36.39011047 -18.9609375 37.6640625 C-18.67521881 38.92640717 -18.38950012 40.18875183 -18.09512329 41.48934937 C-17.33571172 44.84491916 -16.58513563 48.20240592 -15.83636475 51.56036377 C-15.07070188 54.98675322 -14.29672387 58.41126209 -13.5234375 61.8359375 C-12.0074684 68.5554717 -10.50082248 75.27706706 -9 82 C-7.64373489 72.42411057 -6.54016462 62.85823198 -5.70792961 53.2216835 C-5.52184269 51.06918066 -5.33122426 48.91711759 -5.13954163 46.7651062 C-4.66600897 41.44030381 -4.1987094 36.11496076 -3.73345947 30.78942871 C-3.33637065 26.24419048 -2.93585087 21.6992847 -2.53009224 17.15481186 C-2.3421579 15.03392825 -2.15943013 12.91263548 -1.97679138 10.79129028 C-1.86319778 9.51841156 -1.74960419 8.24553284 -1.63256836 6.93408203 C-1.48506386 5.24655319 -1.48506386 5.24655319 -1.33457947 3.52493286 C-1 1 -1 1 0 0 Z " fill="#F3B623" transform="translate(250,93)"/>
<path d="M0 0 C2.06911395 1.80633034 4.09806728 3.64539759 6.125 5.5 C6.86363281 6.16773438 7.60226563 6.83546875 8.36328125 7.5234375 C22.3138437 20.77507398 34.65789716 39.62987467 39.125 58.5 C38.795 59.49 38.465 60.48 38.125 61.5 C37.64780518 61.00709473 37.17061035 60.51418945 36.67895508 60.00634766 C7.13026918 29.61726352 -30.88919228 5.29732307 -74.59765625 4.22265625 C-89.78465129 4.02295606 -89.78465129 4.02295606 -104.875 5.5 C-104.23699463 5.56993164 -103.59898926 5.63986328 -102.94165039 5.71191406 C-57.10783743 10.83153903 -17.29372321 26.39582039 12.32421875 63.38671875 C14.35409023 66.02705528 16.28100928 68.72570765 18.125 71.5 C16.64316732 74.46366537 14.28780137 74.65370696 11.29663086 75.6574707 C10.49749268 75.91488037 9.69835449 76.17229004 8.875 76.4375 C8.0610376 76.70328857 7.2470752 76.96907715 6.40844727 77.24291992 C-24.20097897 87.05876602 -53.56605272 85.18924431 -82.25 70.4375 C-95.92330334 63.18458669 -107.95085479 54.18922319 -119.85668945 44.36474609 C-132.02652758 34.37946792 -144.90424512 25.75351886 -158.875 18.5 C-159.81472656 18.00886719 -160.75445312 17.51773438 -161.72265625 17.01171875 C-169.16085244 13.38798214 -177.02296633 11.26973597 -184.96337891 9.05322266 C-187.62804721 8.28206833 -190.25208673 7.40175511 -192.875 6.5 C-145.3557999 -31.41943091 -47.7930749 -40.59481843 0 0 Z " fill="#7FCB28" transform="translate(199.875,309.5)"/>
<path d="M0 0 C3.82761929 1.73488983 7.67024799 3.43583201 11.51220703 5.13867188 C11.18220703 5.79867188 10.85220703 6.45867187 10.51220703 7.13867188 C8.09368453 7.82752965 5.71426202 8.41141134 3.26220703 8.95117188 C-21.03210701 14.72474568 -41.26171035 27.76665077 -60.30029297 43.51367188 C-90.05461523 68.05674345 -122.54373543 85.98886146 -162.03466797 82.85742188 C-174.54844925 81.35807481 -186.76209346 77.67807925 -198.48779297 73.13867188 C-194.81061148 56.96923478 -174.11340709 40.95974714 -160.84716797 32.24023438 C-134.56553687 15.79893492 -107.18187322 7.75093402 -76.48779297 5.13867188 C-115.9627425 -0.87374241 -156.60694672 9.8646226 -188.68896484 33.4519043 C-196.76544667 39.54160034 -204.50648152 45.80921104 -211.48779297 53.13867188 C-214.35773661 56.07535839 -217.12686528 58.77357461 -220.48779297 61.13867188 C-219.9495392 55.32553116 -218.28295832 50.67891234 -215.86279297 45.38867188 C-215.32211182 44.19624878 -215.32211182 44.19624878 -214.77050781 42.97973633 C-211.84377774 36.65735614 -208.56278097 30.80164489 -204.48779297 25.13867188 C-203.37984375 23.58792969 -203.37984375 23.58792969 -202.24951172 22.00585938 C-182.94648653 -4.34921479 -156.44700732 -19.39316197 -124.48779297 -24.86132812 C-81.87225872 -30.92883228 -38.38714117 -17.40667155 0 0 Z " fill="#7FCB28" transform="translate(481.48779296875,309.861328125)"/>
<path d="M0 0 C-2.42042644 1.61361763 -4.69577271 2.89658675 -7.2890625 4.1796875 C-22.43040144 11.79553573 -35.75830469 20.5969041 -48.8125 31.375 C-78.57013442 55.91600969 -111.05356018 73.85037849 -150.546875 70.71875 C-163.06065629 69.21940293 -175.27430049 65.53940737 -187 61 C-185.66506781 54.98447671 -181.79188809 50.74432466 -178 46 C-177.56220215 45.43458496 -177.1244043 44.86916992 -176.67333984 44.28662109 C-173.46778651 40.23744142 -170.31325095 36.88072882 -166 34 C-162.42047658 33.63227263 -159.76917519 34.26062774 -156.27734375 35.1171875 C-128.29555336 41.76943642 -99.80252777 30.20495827 -74.38476562 19.9128418 C-23.96297245 -0.49922859 -23.96297245 -0.49922859 0 0 Z " fill="#66AA2F" transform="translate(470,322)"/>
<path d="M0 0 C26.67932731 -0.58402508 52.98496858 10.9196742 77.21264648 21.01586914 C103.53696829 31.92313457 131.67688731 41.07500149 160.41015625 34.62890625 C165.36394905 33.7276603 165.36394905 33.7276603 168.01220703 34.86157227 C169.81383968 36.31930426 171.21789131 37.83419747 172.6875 39.625 C173.22076904 40.21369873 173.75403809 40.80239746 174.3034668 41.40893555 C179.24250541 46.96489056 183.75027265 52.90542978 188 59 C186.51816732 61.96366537 184.16280137 62.15370696 181.17163086 63.1574707 C179.97292358 63.54358521 179.97292358 63.54358521 178.75 63.9375 C177.9360376 64.20328857 177.1220752 64.46907715 176.28344727 64.74291992 C145.67402103 74.55876602 116.30894728 72.68924431 87.625 57.9375 C73.95169666 50.68458669 61.92414521 41.68922319 50.01831055 31.86474609 C34.72636114 19.31779461 18.25955171 8.69841269 0 1 C0 0.67 0 0.34 0 0 Z " fill="#66AA2F" transform="translate(30,322)"/>
<path d="M0 0 C9.14491834 17.70334549 9.14491834 17.70334549 11 25 C10.67 25.99 10.34 26.98 10 28 C2.66666667 20.66666667 -4.66666667 13.33333333 -12 6 C-10.37829621 4.99466333 -8.75252763 3.99588093 -7.125 3 C-5.76761719 2.1646875 -5.76761719 2.1646875 -4.3828125 1.3125 C-2 0 -2 0 0 0 Z " fill="#66AA30" transform="translate(228,343)"/>
<path d="M0 0 C4.30764815 1.56641751 8.06171464 3.68336156 12 6 C2.5 15.5 2.5 15.5 0.14453125 17.8515625 C-1.09263985 19.0909871 -2.32643859 20.33383897 -3.55078125 21.5859375 C-5.88797241 23.97377987 -8.2656823 26.07585051 -11 28 C-10.47642197 21.97482517 -8.59193716 17.21179351 -6.0625 11.75 C-5.70220703 10.94820313 -5.34191406 10.14640625 -4.97070312 9.3203125 C-3.47096518 6.01702229 -2.01924626 3.0288694 0 0 Z " fill="#66A930" transform="translate(272,343)"/>
<path d="" fill="#F2B727" transform="translate(0,0)"/>
<path d="" fill="#F1B322" transform="translate(0,0)"/>
<path d="" fill="#F7B222" transform="translate(0,0)"/>
</svg>
